<?xml version="1.0" encoding="UTF-8"?>
<svg xmlns="http://www.w3.org/2000/svg" xmlns:xlink="http://www.w3.org/1999/xlink" width="3750" height="3750" viewBox="0 0 3750 3750">
<rect x="-375" y="-375" width="4500" height="4500" fill="rgb(94.921875%, 94.921875%, 94.921875%)" fill-opacity="0"/>
<path fill-rule="nonzero" fill="rgb(98.826599%, 75.78125%, 64.256287%)" fill-opacity="1" d="M 3012.460938 2907.273438 L 2928.320312 2967.972656 L 2896.589844 3043.851562 L 2932.460938 3059.023438 L 2937.96875 3079.71875 L 2987.628906 3104.550781 L 3060.738281 3074.199219 L 3086.949219 2945.898438 L 3012.460938 2907.273438 "/>
<path fill-rule="nonzero" fill="rgb(100%, 100%, 100%)" fill-opacity="1" d="M 1370.96875 1250.050781 L 1242.769531 1227.53125 L 1229.121094 1053.890625 L 1151.078125 936.828125 L 1133.53125 825.621094 L 1219.359375 829.519531 L 1340.96875 888.050781 L 1432 1083.148438 L 1370.96875 1250.050781 "/>
<path fill-rule="nonzero" fill="rgb(100%, 100%, 100%)" fill-opacity="1" d="M 824.691406 2987.246094 L 739.167969 3020.398438 L 648.125 3054.121094 L 471.558594 3078.339844 L 375 3130.765625 L 474.316406 3191.464844 L 821.347656 3246.648438 L 852.28125 3265.960938 L 924.011719 3274.238281 L 973.671875 3150.078125 L 1004.859375 3006.507812 L 824.691406 2987.246094 "/>
<path fill-rule="nonzero" fill="rgb(19.993591%, 19.993591%, 19.993591%)" fill-opacity="1" d="M 1274.390625 2374.75 L 990.222656 2697.871094 L 824.691406 2987.246094 L 852.28125 3056.265625 L 940.5625 3078.339844 L 1069.148438 2934.671875 L 1318.851562 2757.128906 L 1437.160156 2587.210938 L 1274.390625 2374.75 "/>
<path fill-rule="nonzero" fill="rgb(19.993591%, 19.993591%, 19.993591%)" fill-opacity="1" d="M 1787.53125 1704.28125 L 1613.421875 1592.371094 L 1519.789062 1418.730469 L 1344.210938 1219.730469 L 1365.671875 1106.570312 L 1410.539062 1106.570312 L 1432 1083.148438 L 1494.429688 1180.710938 L 1662.191406 1307.519531 L 1955.820312 1596.671875 L 1787.53125 1704.28125 "/>
<path fill-rule="nonzero" fill="rgb(98.826599%, 75.78125%, 64.256287%)" fill-opacity="1" d="M 2132.390625 1767.738281 L 2019.28125 1671.171875 L 1955.820312 1596.671875 L 1886.851562 1563.558594 L 1795.808594 1621.5 L 1787.53125 1704.28125 L 1875.820312 1850.511719 L 1944.789062 2007.789062 L 2103.421875 1926.390625 L 2132.390625 1767.738281 "/>
<path fill-rule="nonzero" fill="rgb(98.826599%, 75.78125%, 64.256287%)" fill-opacity="1" d="M 1724.078125 2371.988281 L 1525.441406 2352.679688 L 1274.390625 2374.75 L 1249.558594 2496.160156 L 1324.039062 2532.03125 L 1437.160156 2587.210938 L 1726.839844 2634.121094 L 1724.078125 2371.988281 "/>
<path fill-rule="nonzero" fill="rgb(100%, 100%, 100%)" fill-opacity="1" d="M 3094.078125 2493.738281 L 3150.660156 2599.101562 L 3099.941406 2722.011719 L 3088.230469 2768.835938 L 2988.738281 2911.261719 L 3096.039062 2983.449219 L 3156.511719 2930.769531 L 3222.839844 2887.847656 L 3308.671875 2667.378906 L 3326.230469 2466.429688 L 3298.921875 2333.761719 L 3298.921875 2244.011719 L 3242.351562 2167.921875 L 3094.078125 2493.738281 "/>
<path fill-rule="nonzero" fill="rgb(49.804688%, 83.201599%, 96.875%)" fill-opacity="1" d="M 2478.628906 2138.851562 L 2449.660156 2054.691406 L 2419.308594 2024.339844 L 2397.238281 1966.398438 L 2110.320312 1726.351562 L 1999.960938 1952.601562 L 1944.789062 2007.789062 L 2068.929688 2220.238281 L 1986.171875 2256.109375 L 1875.820312 2311.289062 L 1779.261719 2316.808594 L 1740.628906 2352.679688 L 1688.210938 2352.679688 L 1638.550781 2485.121094 L 1655.109375 2631.359375 L 1724.078125 2631.359375 L 1900.640625 2672.738281 L 2179.289062 2694.820312 L 2322.75 2650.671875 L 2478.628906 2138.851562 "/>
<path fill-rule="nonzero" fill="rgb(100%, 100%, 100%)" fill-opacity="1" d="M 3004.351562 2111.339844 L 2826.820312 2113.289062 L 2641.5 2156.210938 L 2514.699219 2097.679688 L 2473.730469 2099.628906 L 2326.890625 2182.988281 L 2212.390625 2267.148438 L 2212.390625 2443.730469 L 2270.328125 2703.089844 L 2344.820312 2700.328125 L 2435.859375 2730.679688 L 2617.949219 2683.78125 L 2703.46875 2705.851562 L 2943.488281 2642.390625 L 3114.539062 2501.671875 L 3208.339844 2344.398438 L 3266.28125 2162.300781 L 3235.929688 2074 L 3004.351562 2111.339844 "/>
<path fill-rule="nonzero" fill="rgb(98.826599%, 75.78125%, 64.256287%)" fill-opacity="1" d="M 3107.738281 1760.160156 L 3004.351562 1824.539062 L 2879.5 2035.25 L 2918.511719 2074.269531 L 2967.28125 2084.03125 L 2934.121094 2142.558594 L 3008.25 2185.480469 L 3162.359375 2226.449219 L 3185.769531 2154.261719 L 3142.851562 2091.828125 L 3146.761719 1963.058594 L 3123.351562 1939.648438 L 3070.671875 1945.511719 L 3092.128906 1828.441406 L 3125.300781 1801.128906 L 3107.738281 1760.160156 "/>
<path fill-rule="nonzero" fill="rgb(19.993591%, 19.993591%, 19.993591%)" fill-opacity="1" d="M 3107.738281 1760.160156 L 3127.25 1705.53125 L 3271.609375 1734.789062 L 3230.640625 1742.601562 L 3302.820312 1773.820312 L 3375 1857.710938 L 3343.789062 2035.25 L 3185.769531 2154.261719 L 3142.851562 2091.828125 L 3146.761719 1963.058594 L 3123.351562 1939.648438 L 3070.671875 1945.5 L 3092.128906 1828.441406 L 3125.300781 1801.128906 L 3107.738281 1760.160156 "/>
<path fill-rule="nonzero" fill="rgb(70.117188%, 70.117188%, 70.117188%)" fill-opacity="1" d="M 2955.570312 2443.011719 L 2953.628906 2614.699219 L 2840.480469 2542.519531 L 2647.351562 2478.128906 L 2781.960938 2587.398438 L 2491.289062 2659.570312 L 2440.570312 2536.671875 L 2452.269531 2684.941406 L 2344.980469 2661.53125 L 2236.5 2551.640625 L 2268.640625 2695.53125 L 2271.628906 2703.050781 L 2344.820312 2700.328125 L 2435.859375 2730.679688 L 2617.949219 2683.78125 L 2703.46875 2705.851562 L 2943.488281 2642.390625 L 2991.390625 2602.980469 L 3000.441406 2563.96875 L 2955.570312 2443.011719 "/>
<path fill-rule="nonzero" fill="rgb(70.117188%, 70.117188%, 70.117188%)" fill-opacity="1" d="M 3215.03125 2308.390625 L 3215.03125 2316.199219 L 3168.210938 2499.589844 L 3263.800781 2597.148438 L 3183.820312 2569.828125 L 3215.03125 2665.429688 L 3150.660156 2599.101562 L 3094.078125 2493.738281 L 3189.101562 2257.671875 L 3215.03125 2308.390625 "/>
<path fill-rule="nonzero" fill="rgb(70.117188%, 70.117188%, 70.117188%)" fill-opacity="1" d="M 3082.808594 2882.4375 L 3245.28125 2830.210938 L 3178.359375 2879.679688 Z M 3082.808594 2882.4375 "/>
<path fill-rule="nonzero" fill="rgb(98.826599%, 75.78125%, 64.256287%)" fill-opacity="1" d="M 2248.410156 2193.28125 L 2242.558594 2193.28125 L 2204.519531 2164.988281 L 2197.691406 2099.640625 L 2167.449219 2064.519531 L 2121.609375 2064.519531 L 2101.128906 2050.859375 L 2078.691406 2052.808594 L 2061.128906 2098.660156 L 2010.410156 2112.320312 L 2032.851562 2163.039062 L 2062.109375 2192.308594 L 2106 2196.210938 L 2144.039062 2249.859375 L 2240.609375 2292.789062 L 2248.410156 2193.28125 "/>
<path fill-rule="nonzero" fill="rgb(27.43988%, 72.068787%, 91.014099%)" fill-opacity="1" d="M 2118.589844 2261.628906 L 2027.550781 2417.519531 L 2045.480469 2543.058594 L 2053.761719 2410.621094 L 2151.699219 2315.429688 L 2118.589844 2261.628906 "/>
<path fill-rule="nonzero" fill="rgb(19.993591%, 19.993591%, 19.993591%)" fill-opacity="1" d="M 1369.570312 475.769531 L 1495.101562 481.28125 L 1602.699219 557.160156 L 1637.179688 702.019531 L 1579.25 812.378906 L 1441.300781 874.460938 L 1321.289062 845.488281 L 1245.269531 757.328125 L 1227.488281 630.28125 L 1281.289062 529.570312 L 1369.570312 475.769531 "/>
<path fill-rule="nonzero" fill="rgb(100%, 100%, 100%)" fill-opacity="1" d="M 1325.429688 566.820312 L 1286.808594 642.699219 L 1289.570312 715.808594 L 1381.988281 710.289062 L 1431.648438 667.53125 L 1386.128906 599.929688 L 1325.429688 566.820312 "/>
<path fill-rule="nonzero" fill="rgb(100%, 100%, 100%)" fill-opacity="1" d="M 1372.328125 533.710938 L 1372.328125 540.609375 L 1394.398438 588.890625 L 1463.371094 638.558594 L 1518.550781 575.101562 L 1514.410156 518.53125 L 1456.480469 507.5 L 1372.328125 533.710938 "/>
<path fill-rule="nonzero" fill="rgb(100%, 100%, 100%)" fill-opacity="1" d="M 1369.570312 475.761719 L 1297.601562 519.628906 L 1366.820312 522.679688 L 1443.769531 479.03125 Z M 1602.769531 557.46875 L 1529.589844 583.371094 L 1493.730469 645.449219 L 1568.210938 685.46875 L 1632.988281 684.449219 Z M 1262.820312 564.140625 L 1227.488281 630.28125 L 1237.960938 705.03125 L 1264.738281 707.53125 L 1279.910156 620.628906 L 1274.390625 568.199219 Z M 1495.109375 697.878906 L 1479.929688 782.039062 L 1502.730469 846.820312 L 1579.238281 812.390625 L 1615.539062 743.25 L 1555.800781 704.769531 Z M 1240.050781 719.988281 L 1245.269531 757.339844 L 1266.980469 782.511719 L 1267.5 743.398438 Z M 1300.609375 793.070312 L 1290.148438 809.390625 L 1321.289062 845.5 L 1422.890625 870.019531 L 1409.578125 846.878906 L 1300.609375 793.070312 "/>
<path fill-rule="nonzero" fill="rgb(100%, 100%, 100%)" fill-opacity="1" d="M 1322.671875 773.761719 L 1369.570312 812.378906 L 1442.679688 831.699219 L 1466.128906 777.890625 L 1434.410156 719.949219 L 1365.429688 719.949219 L 1322.671875 773.761719 "/>
<path fill-rule="nonzero" fill="rgb(70.117188%, 70.117188%, 70.117188%)" fill-opacity="1" d="M 2238.308594 2299.460938 L 2420.46875 2442.121094 L 2560.941406 2488.210938 L 2593.859375 2536.5 L 2613.609375 2512.351562 L 2804.558594 2606.730469 L 2804.558594 2468.460938 L 2238.308594 2299.460938 "/>
<path fill-rule="nonzero" fill="rgb(70.117188%, 70.117188%, 70.117188%)" fill-opacity="1" d="M 2339.269531 2176.550781 L 2624.589844 2220.449219 L 2714.570312 2161.191406 L 2672.871094 2242.398438 L 2754.078125 2229.230469 L 2837.480469 2205.089844 L 2815.53125 2235.808594 L 2885.769531 2317.019531 L 2530.210938 2319.210938 L 2339.269531 2176.550781 "/>
<path fill-rule="nonzero" fill="rgb(100%, 100%, 100%)" fill-opacity="1" d="M 2769.679688 2239.558594 L 2673.121094 2267.148438 L 2546.21875 2245.070312 L 2422.070312 2192.648438 L 2228.949219 2173.339844 L 2239.980469 2256.109375 L 2217.910156 2297.5 L 2402.761719 2396.828125 L 2852.449219 2578.929688 L 2924.179688 2440.96875 L 2904.871094 2291.980469 L 2769.679688 2239.558594 "/>
<path fill-rule="nonzero" fill="rgb(74.021912%, 36.473083%, 35.301208%)" fill-opacity="1" d="M 2879.5 2035.25 L 3070.671875 2074 L 2934.121094 2142.558594 L 2967.28125 2084.03125 L 2918.511719 2074.269531 L 2879.5 2035.25 "/>
<path fill-rule="nonzero" fill="rgb(74.021912%, 36.473083%, 35.301208%)" fill-opacity="1" d="M 2055.140625 1839.480469 L 1959.960938 1929.898438 L 1910.300781 1929.148438 L 1944.789062 2007.789062 L 1999.960938 1952.601562 L 2055.140625 1839.480469 "/>
<path fill-rule="nonzero" fill="rgb(74.021912%, 36.473083%, 35.301208%)" fill-opacity="1" d="M 1688.210938 2352.679688 L 1593.039062 2525.519531 L 1380.601562 2559.621094 L 1437.160156 2587.210938 L 1655.109375 2631.359375 L 1638.550781 2485.121094 L 1688.210938 2352.679688 "/>
</svg>
